<?xml version="1.0" encoding="UTF-8" standalone="no"?>
<!DOCTYPE svg PUBLIC "-//W3C//DTD SVG 1.1//EN" "http://www.w3.org/Graphics/SVG/1.1/DTD/svg11.dtd">
<svg version="1.1" xmlns="http://www.w3.org/2000/svg" xmlns:xlink="http://www.w3.org/1999/xlink" preserveAspectRatio="xMidYMid meet" viewBox="0 0 640 640" width="640" height="640"><defs><path d="M345.9 577.16C396.66 591.07 450.21 591.24 501.05 577.63C519.58 572.68 565.89 560.28 640 540.45L640 640L0 640L0 581.36C88.35 564.32 143.57 553.67 165.65 549.4C196.17 543.52 227.64 544.73 257.61 552.95C290.77 562.04 319.13 569.82 345.9 577.16Z" id="e1X1Uwj1U3"></path><path d="M290.92 593.07C320.43 601.31 351.83 599.56 380.25 588.1C402.74 579.03 425.42 569.88 447.67 560.91C476.78 549.16 509.09 548.01 538.97 557.64C552.44 561.99 586.12 572.85 640 590.23L640 640L0 640L-2.27 608.64C31.4 597.05 52.45 589.81 60.87 586.92C121.57 566.04 187.2 564.1 249.03 581.37C266.51 586.25 263.55 585.43 290.92 593.07Z" id="cvzec3jCH"></path></defs><g><g><g><use xlink:href="#e1X1Uwj1U3" opacity="1" fill="#ff1b1b" fill-opacity="0.68"></use></g><g><use xlink:href="#cvzec3jCH" opacity="1" fill="#ff1a1a" fill-opacity="0.68"></use></g></g></g></svg>